<?xml version="1.0" encoding="UTF-8" standalone="no"?>
<svg width="16px" height="17px" viewBox="0 0 16 17" version="1.1" xmlns="http://www.w3.org/2000/svg" xmlns:xlink="http://www.w3.org/1999/xlink" xmlns:sketch="http://www.bohemiancoding.com/sketch/ns">
    <!-- Generator: Sketch Beta 3.4.4 (17258) - http://www.bohemiancoding.com/sketch -->
    <title>Databricks_Logo_Side_Nav_Orange</title>
    <desc>Created with Sketch Beta.</desc>
    <defs></defs>
    <g id="Page-1" stroke="none" stroke-width="1" fill="none" fill-rule="evenodd" sketch:type="MSPage">
        <g id="Databricks_Logo_Side_Nav_Orange" sketch:type="MSLayerGroup" fill-opacity="0.5" fill="#FFFFFF">
            <g id="Page-1" sketch:type="MSShapeGroup">
                <g id="Databricks_Logo_Side_Nav_Orange">
                    <g id="Page-1">
                        <g id="Databricks-Copy">
                            <path d="M15.2408636,9.7341095 L8.0000989,13.5181244 L0.7591364,9.7341095 L2.5026386,8.8229086 L8.0000989,11.6959203 L13.4975591,8.8231063 L15.2408636,9.7341095 L15.2408636,9.7341095 L15.2408636,9.7341095 Z M0.7593341,7.0552816 L0.7591364,7.0552816 L0.7593341,7.0552816 L0.7593341,7.0552816 L0.7593341,7.0552816 Z M8.0000989,0.8566238 L15.2408636,4.6406387 L8.0000989,8.4248514 L0.7591364,4.6406387 L8.0000989,0.8566238 L8.0000989,0.8566238 L8.0000989,0.8566238 Z M8.0000989,0 L0,4.1808856 L0,7.5152324 L1.6829928,8.3947944 L0,9.2741587 L0,12.6085054 L8.0000989,16.7893911 L16,12.6085054 L16,9.2743564 L14.3170072,8.3947944 L16,7.5152324 L16,4.1808856 L8.0000989,0 L8.0000989,0 L8.0000989,0 Z" id="Fill-18-Copy"></path>
                        </g>
                    </g>
                </g>
            </g>
        </g>
    </g>
</svg>